<svg xmlns="http://www.w3.org/2000/svg" width="20" height="20" fill="none" viewBox="0 0 20 20"><path fill="currentColor" fill-opacity=".5" fill-rule="evenodd" d="M11 9.5V19.5L3 14.5V4.5L8 7.5L11 9.5Z" clip-rule="evenodd" opacity=".7"/><path fill="currentColor" fill-opacity=".5" fill-rule="evenodd" d="M12 9V19L11 19.5V9.5L8 7.5L3 4.5L4 4L12 9Z" clip-rule="evenodd"/><path fill="currentColor" fill-opacity=".5" fill-rule="evenodd" d="M15 7V17L14 17.5V7.5L11 5.5L6 2.5L7 2L15 7Z" clip-rule="evenodd" opacity=".8"/><path fill="currentColor" fill-opacity=".5" fill-rule="evenodd" d="M14 7.5V17.5L13 16.88V8L6 3.62V2.5L11 5.5L14 7.5Z" clip-rule="evenodd" opacity=".6"/><path fill="currentColor" fill-opacity=".5" fill-rule="evenodd" d="M18 5V15L17 15.5V5.5L14 3.5L9 0.5L10 0L18 5Z" clip-rule="evenodd" opacity=".6"/><path fill="currentColor" fill-opacity=".5" fill-rule="evenodd" d="M17 5.5V15.5L16 14.88V6L9 1.62V0.5L14 3.5L17 5.5Z" clip-rule="evenodd" opacity=".4"/></svg>